<?xml version="1.0" encoding="iso-8859-1"?>
<!-- Generator: Adobe Illustrator 19.0.0, SVG Export Plug-In . SVG Version: 6.00 Build 0)  -->
<svg version="1.1" id="Capa_1" xmlns="http://www.w3.org/2000/svg" xmlns:xlink="http://www.w3.org/1999/xlink" x="0px" y="0px"
	 viewBox="0 0 512 512" style="enable-background:new 0 0 512 512;" xml:space="preserve">
<path style="fill:#F9E8D4;" d="M81.364,323.747c-15.302-12.601-37.892-14.176-55.185-1.732
	c-17.988,12.944-23.893,37.576-13.716,57.263c6.29,12.169,17.144,20.155,29.227,23.174c4.349,1.087,7.1,5.542,6.122,9.917
	c-2.718,12.154-0.444,25.436,7.614,36.514c13.037,17.921,37.701,23.686,57.336,13.408c18.875-9.88,27.594-30.779,23.188-50.106
	c-0.814-3.568,0.696-7.258,3.81-9.18l57.792-35.671l-48.481-78.548l-57.792,35.671C88.164,326.379,84.19,326.074,81.364,323.747z"/>
<path style="fill:#E8D0BA;" d="M197.556,367.329l-23.259-37.684l-55.918,34.499c-3.108,1.918-4.61,5.617-3.796,9.183
	c4.401,19.324-4.323,40.223-23.195,50.113c-14.37,7.528-31.439,6.455-44.675-1.709c-0.095,9.358,2.686,18.863,8.706,27.144
	c13.045,17.923,37.704,23.687,57.347,13.426c18.872-9.89,27.598-30.789,23.178-50.117c-0.815-3.566,0.705-7.26,3.813-9.179
	L197.556,367.329z"/>
<path style="fill:#FF9017;" d="M504.494,256.009c0-11.113-5.841-20.859-14.618-26.345c-1-0.624-1.278-1.94-0.611-2.912
	c3.423-4.99,5.429-11.025,5.429-17.532c0-5.383-1.373-10.444-3.783-14.856c-0.454-0.832-0.282-1.882,0.432-2.507
	c7.901-6.908,12.897-17.056,12.897-28.376c0-20.817-16.875-37.691-37.691-37.691c-1.588,0-3.151,0.102-4.687,0.295
	c-0.856,0.107-1.671-0.334-2.051-1.109c-5.512-11.256-16.467-19.355-29.44-20.872c-0.927-0.108-1.673-0.845-1.781-1.77
	c-2.185-18.737-18.101-33.282-37.424-33.282c-5.138,0-10.032,1.035-14.494,2.898c-1.248,0.521-2.628-0.24-2.858-1.573
	c-2.521-14.618-15.252-25.739-30.591-25.739c-14.325,0-26.382,9.7-29.965,22.89c-0.388,1.428-2.101,1.981-3.262,1.064
	c-5.288-4.179-11.967-6.676-19.231-6.676c-11.946,0-22.31,6.749-27.503,16.638c-0.417,0.795-1.326,1.21-2.204,1.023
	c-2.088-0.444-4.253-0.681-6.473-0.681c-17.15,0-31.052,13.902-31.052,31.053c0,0.004,0,0.008,0,0.012
	c0.001,0.716-0.36,1.372-0.961,1.761c-8.538,5.533-14.19,15.141-14.19,26.073c0,6.845,2.22,13.17,5.973,18.302
	c0.784,1.071,0.328,2.622-0.912,3.094c-8.933,3.408-15.886,10.817-18.667,20.04c-0.269,0.894-1.125,1.474-2.057,1.431
	c-0.519-0.024-1.041-0.037-1.566-0.037c-20.817,0-37.691,16.875-37.691,37.691c0,9.815,3.757,18.748,9.905,25.454
	c0.914,0.997,0.688,2.591-0.508,3.222c-9.86,5.203-16.583,15.555-16.583,27.479c0,1.557,0.117,3.087,0.34,4.582
	c0.127,0.853-0.285,1.709-1.046,2.113c-9.827,5.213-16.522,15.546-16.522,27.444c0,4.682,1.043,9.118,2.899,13.098
	c0.263,0.564,0.263,1.205,0,1.769c-1.856,3.98-2.899,8.416-2.899,13.098c0,14.645,10.139,26.916,23.779,30.191
	c0.777,0.186,1.375,0.779,1.569,1.553c3.385,13.484,15.585,23.47,30.118,23.47c7.694,0,14.729-2.803,20.153-7.438
	c0.798-0.682,1.979-0.642,2.736,0.085c5.581,5.368,13.163,8.669,21.518,8.669c13.639,0,25.221-8.795,29.392-21.021
	c0.508-1.489,2.485-1.854,3.494-0.646c4.549,5.443,10.926,9.302,18.191,10.635c0.828,0.152,1.487,0.809,1.639,1.635
	c2.652,14.458,15.309,25.417,30.534,25.417c12.688,0,23.592-7.614,28.409-18.519c0.33-0.748,1.094-1.209,1.91-1.186
	c0.243,0.007,0.487,0.011,0.733,0.011c8.841,0,16.818-3.695,22.473-9.623c0.822-0.861,2.177-0.861,2.997,0
	c5.655,5.928,13.632,9.623,22.473,9.623c14.353,0,26.429-9.739,29.986-22.968c0.255-0.948,1.151-1.586,2.129-1.501
	c0.879,0.077,1.768,0.117,2.668,0.117c12.507,0,23.281-7.399,28.2-18.055c0.381-0.826,1.27-1.285,2.17-1.146
	c6.509,1.013,13.888-0.62,21.254-6.79c0.151-0.126,0.288-0.277,0.401-0.438c8.219-11.79,6.216-24.095-0.793-31.74
	c-0.732-0.799-0.732-2.005,0-2.803c3.821-4.168,6.154-9.721,6.154-15.821c0-0.422-0.012-0.841-0.036-1.257
	c-0.05-0.885,0.451-1.718,1.279-2.037C496.225,280.518,504.494,269.233,504.494,256.009z"/>
<path style="fill:#EF7D0A;" d="M504.492,256.012c0,13.22-8.266,24.508-19.915,28.982c-0.831,0.32-1.331,1.151-1.281,2.042
	c0.03,0.41,0.04,0.831,0.04,1.251c0,6.105-2.332,11.659-6.155,15.822c-0.731,0.801-0.731,2.012,0,2.802
	c7.005,7.646,9.017,19.955,0.791,31.744c-0.11,0.16-0.25,0.31-0.4,0.44c-7.365,6.165-14.741,7.796-21.256,6.785
	c-0.901-0.14-1.781,0.32-2.162,1.151c-4.924,10.658-15.702,18.053-28.201,18.053c-0.901,0-1.791-0.04-2.672-0.12
	c-0.981-0.08-1.871,0.55-2.132,1.501c-3.553,13.23-15.632,22.967-29.982,22.967c-8.837,0-16.823-3.693-22.477-9.617
	c-0.821-0.861-2.172-0.861-2.992,0c-5.654,5.924-13.63,9.617-22.477,9.617c-0.24,0-0.49,0-0.731-0.01
	c-0.821-0.02-1.581,0.44-1.911,1.191c-4.814,10.898-15.722,18.514-28.411,18.514c-13.46,0-24.929-8.576-29.222-20.565
	c11.919-0.671,22.026-8.066,26.61-18.454c0.33-0.751,1.091-1.211,1.911-1.191c0.24,0.01,0.49,0.01,0.731,0.01
	c8.847,0,16.823-3.693,22.477-9.617c0.821-0.861,2.172-0.861,2.992,0c5.654,5.924,13.64,9.617,22.477,9.617
	c14.351,0,26.43-9.737,29.982-22.967c0.26-0.941,1.151-1.581,2.132-1.501c0.881,0.08,1.771,0.12,2.672,0.12
	c12.499,0,23.277-7.396,28.201-18.053c0.38-0.831,1.261-1.291,2.162-1.151c6.515,1.021,13.89-0.62,21.256-6.785
	c0.15-0.13,0.29-0.28,0.4-0.44c8.226-11.789,6.215-24.098-0.791-31.734c-0.731-0.801-0.731-2.012,0-2.812
	c3.823-4.163,6.155-9.717,6.155-15.822c0-0.42-0.01-0.841-0.04-1.251c-0.05-0.891,0.45-1.721,1.281-2.042
	c11.649-4.473,19.915-15.762,19.915-28.982c0-11.118-5.834-20.856-14.611-26.35c-1.001-0.62-1.281-1.931-0.62-2.912
	c3.423-4.984,5.434-11.018,5.434-17.523c0-5.384-1.371-10.448-3.783-14.861c-0.46-0.831-0.28-1.881,0.43-2.512
	c7.906-6.905,12.9-17.053,12.9-28.371c0-6.155-1.471-11.959-4.093-17.093c19.625,1.321,35.116,17.653,35.116,37.598
	c0,11.318-4.994,21.466-12.9,28.371c-0.711,0.63-0.891,1.681-0.43,2.512c2.412,4.413,3.783,9.467,3.783,14.851
	c0,6.515-2.012,12.549-5.434,17.533c-0.66,0.971-0.38,2.292,0.62,2.912C498.657,235.146,504.492,244.894,504.492,256.012z"/>
<path d="M512,256.009c0-11.592-5.092-22.318-13.842-29.597c2.655-5.313,4.041-11.168,4.041-17.191c0-5.02-0.988-10.004-2.88-14.626
	c6.498-6.839,10.716-15.546,12.003-24.918c0.564-4.107-2.307-7.893-6.413-8.457c-4.103-0.567-7.894,2.306-8.458,6.414
	c-0.985,7.173-4.554,13.77-10.049,18.575c-3.332,2.915-4.206,7.859-2.079,11.754c1.874,3.433,2.865,7.326,2.865,11.259
	c0,4.771-1.422,9.364-4.113,13.287c-1.468,2.141-2.007,4.824-1.477,7.359c0.529,2.54,2.098,4.786,4.3,6.162
	c6.944,4.341,11.091,11.81,11.091,19.98c0,9.674-6.07,18.509-15.106,21.981c-3.869,1.489-6.312,5.292-6.077,9.464
	c0.016,0.276,0.024,0.554,0.024,0.834c0,3.99-1.484,7.808-4.181,10.749c-3.384,3.691-3.384,9.257-0.001,12.948
	c4.24,4.625,6.551,12.736,0.56,21.798c-4.843,3.877-9.798,5.451-14.732,4.682c-4.2-0.655-8.367,1.572-10.142,5.415
	c-3.841,8.319-12.236,13.695-21.386,13.695c-0.661,0-1.339-0.03-2.013-0.089c-4.612-0.398-8.828,2.554-10.031,7.029
	c-2.756,10.252-12.107,17.412-22.738,17.412c-6.501,0-12.553-2.592-17.044-7.299c-1.801-1.886-4.325-2.968-6.928-2.968
	c-0.001,0-0.002,0-0.003,0c-2.603,0-5.127,1.084-6.926,2.97c-4.489,4.707-10.542,7.297-17.042,7.297
	c-0.175,0-0.349-0.003-0.518-0.008c-3.87-0.111-7.423,2.107-8.991,5.656c-3.77,8.532-12.226,14.046-21.544,14.046
	c-11.367,0-21.104-8.102-23.151-19.263c-0.71-3.877-3.792-6.957-7.666-7.667c-5.366-0.985-10.263-3.85-13.785-8.065
	c-2.203-2.637-5.681-3.884-9.066-3.255c-3.389,0.628-6.183,3.038-7.292,6.291c-3.252,9.533-12.209,15.939-22.288,15.939
	c-6.113,0-11.907-2.335-16.315-6.574c-3.558-3.421-9.067-3.586-12.815-0.381c-4.255,3.636-9.68,5.638-15.277,5.638
	c-10.819,0-20.21-7.316-22.839-17.789c-0.876-3.493-3.594-6.185-7.097-7.026c-10.613-2.547-18.025-11.961-18.025-22.892
	c0-3.463,0.739-6.802,2.196-9.926c1.202-2.578,1.202-5.534,0-8.113c-1.457-3.123-2.196-6.463-2.196-9.925
	c0-8.737,4.803-16.713,12.532-20.814c3.56-1.887,5.55-5.846,4.954-9.85c-0.171-1.149-0.258-2.319-0.258-3.477
	c0-8.761,4.821-16.747,12.582-20.842c2.626-1.387,4.422-3.861,4.93-6.79c0.511-2.957-0.361-5.924-2.395-8.142
	c-5.115-5.578-7.932-12.817-7.932-20.381c0-16.644,13.541-30.186,30.186-30.186c0.409,0,0.816,0.011,1.22,0.029
	c4.387,0.2,8.328-2.58,9.589-6.763c2.089-6.929,7.381-12.609,14.157-15.193c2.794-1.066,4.885-3.328,5.735-6.206
	c0.852-2.879,0.326-5.916-1.441-8.332c-2.96-4.049-4.525-8.846-4.525-13.871c0-8.014,4.024-15.407,10.767-19.776
	c2.747-1.78,4.385-4.796,4.383-8.071c0-12.984,10.564-23.547,23.548-23.547c1.649,0,3.302,0.173,4.909,0.515
	c4.157,0.888,8.44-1.118,10.412-4.875c4.089-7.786,12.081-12.622,20.859-12.622c5.348,0,10.39,1.749,14.577,5.058
	c2.531,2,5.866,2.594,8.929,1.586c3.055-1.006,5.383-3.46,6.231-6.57c2.776-10.217,12.12-17.352,22.723-17.352
	c11.49,0,21.245,8.205,23.193,19.509c0.5,2.901,2.262,5.375,4.834,6.787c2.57,1.413,5.601,1.571,8.314,0.437
	c3.684-1.538,7.587-2.318,11.603-2.318c15.314,0,28.198,11.455,29.967,26.641c0.511,4.406,3.95,7.844,8.364,8.36
	c10.218,1.194,19.029,7.444,23.57,16.715c1.786,3.651,5.692,5.765,9.726,5.258c6.047-0.761,11.906,0.275,17.195,2.911
	c3.712,1.849,8.216,0.339,10.066-3.37c1.849-3.71,0.34-8.216-3.37-10.066c-6.826-3.402-14.203-5.001-21.952-4.687
	c-6.468-10.83-17.063-18.402-29.365-20.997c-4.368-20.665-22.684-35.777-44.202-35.777c-3.922,0-7.775,0.498-11.514,1.485
	c-5.282-15.319-19.739-25.899-36.429-25.899c-14.897,0-28.277,8.607-34.647,21.623c-5.455-2.858-11.504-4.345-17.812-4.345
	c-13.024,0-24.991,6.499-32.099,17.197c-1.355-0.144-2.718-0.216-4.08-0.216c-20.29,0-36.971,15.753-38.452,35.686
	c-9.604,7.276-15.257,18.56-15.257,30.72c0,6.05,1.385,11.898,4.046,17.208c-7.068,4.19-12.695,10.591-15.92,18.167
	c-23.927,1.127-43.045,20.946-43.045,45.147c0,9.194,2.777,18.063,7.917,25.546c-9.445,7.225-15.102,18.462-15.102,30.609
	c0,0.659,0.017,1.322,0.051,1.983c-7.005,4.632-12.205,11.355-14.987,19.086l-36.498,22.528c-0.366,0.226-0.839,0.182-1.201-0.116
	c-3.512-2.892-7.396-5.32-11.542-7.217c-3.77-1.722-8.223-0.067-9.947,3.703c-1.724,3.77-0.066,8.223,3.703,9.947
	c2.963,1.355,5.737,3.089,8.245,5.155c5.314,4.375,12.799,4.899,18.627,1.302l26.749-16.51c0.42,2.826,1.15,5.587,2.196,8.262
	c-1.741,4.454-2.623,9.147-2.623,13.982c0,16.831,10.737,31.465,26.474,36.622c1.491,4.386,3.728,8.378,6.544,11.849l-18.742,11.569
	c-5.827,3.597-8.715,10.523-7.186,17.235c3.796,16.653-4.162,33.838-19.35,41.789c-16.375,8.571-36.918,3.768-47.786-11.173
	c-6.402-8.801-8.72-19.903-6.359-30.461c1.86-8.319-3.356-16.771-11.628-18.838c-10.496-2.623-19.381-9.671-24.378-19.338
	c-8.484-16.412-3.569-36.93,11.435-47.725c0.634-0.457,1.291-0.9,1.951-1.317c3.505-2.213,4.552-6.848,2.339-10.354
	c-2.213-3.504-6.849-4.552-10.354-2.339c-0.917,0.579-1.827,1.194-2.706,1.826c-20.998,15.106-27.876,43.825-16.001,66.8
	c6.976,13.497,19.396,23.342,34.073,27.009c0.401,0.1,0.708,0.594,0.617,0.999c-3.301,14.765-0.069,30.281,8.87,42.568
	c10.134,13.931,26.275,21.566,42.699,21.566c8.231,0,16.535-1.918,24.187-5.924c21.221-11.108,32.334-35.132,27.025-58.424
	c-0.104-0.457,0.066-0.899,0.434-1.126l23.214-14.329c5.311,2.72,11.307,4.234,17.599,4.234c7.589,0,14.986-2.248,21.264-6.401
	c6.647,5.004,14.71,7.717,23.143,7.717c13.716,0,26.163-7.245,33.033-18.656c3.901,3.037,8.361,5.31,13.127,6.668
	c4.647,16.43,19.703,28.008,37.089,28.008c14.056,0,26.914-7.658,33.675-19.781c7.867-0.52,15.239-3.383,21.349-8.259
	c6.783,5.414,15.123,8.345,23.972,8.345c15.931,0,30.107-9.826,35.859-24.367c13.249-0.373,25.404-7.608,32.11-18.918
	c6.318,0.157,14.639-1.591,23.257-8.81c0.66-0.553,1.245-1.193,1.737-1.898c9.504-13.631,7.78-27.869,1.46-37.416
	c3.012-4.476,4.8-9.662,5.176-15.078C503.605,283.964,512,270.568,512,256.009z"/>
<path d="M219.867,289.793c4.115-0.5,7.045-4.242,6.545-8.357c-0.5-4.114-4.235-7.041-8.357-6.545
	c-11.565,1.407-19.829,11.96-18.423,23.524c0.682,5.602,3.503,10.604,7.946,14.083c3.755,2.941,8.288,4.497,12.985,4.497
	c0.86,0,1.725-0.052,2.592-0.157c4.115-0.5,7.045-4.242,6.545-8.357c-0.5-4.114-4.239-7.042-8.357-6.545
	c-1.623,0.2-3.223-0.249-4.509-1.256c-1.286-1.007-2.104-2.456-2.3-4.077C214.125,293.256,216.518,290.2,219.867,289.793z"/>
<path d="M351.709,174.133c0.163,0.01,0.325,0.016,0.486,0.016c3.927,0,7.229-3.053,7.484-7.026c0.467-7.281-1.93-14.31-6.749-19.788
	c-4.82-5.479-11.485-8.753-18.765-9.219c-8.246-0.522-15.867,2.677-21.236,8.144c-3.931-3.734-8.991-5.96-14.467-6.311
	c-6.193-0.396-12.155,1.64-16.81,5.734c-4.654,4.094-7.437,9.755-7.832,15.941c-0.265,4.137,2.873,7.706,7.01,7.97
	c4.136,0.254,7.705-2.875,7.97-7.01c0.14-2.185,1.122-4.184,2.766-5.629c1.643-1.445,3.749-2.165,5.936-2.025
	c2.186,0.14,4.184,1.122,5.63,2.765c1.445,1.644,2.165,3.752,2.025,5.936c-0.183,2.844,1.244,5.419,3.498,6.837
	c0.145,0.091,0.298,0.172,0.45,0.254c0.062,0.033,0.121,0.072,0.184,0.103c0.654,0.327,1.364,0.562,2.115,0.688
	c0.25,0.042,0.504,0.071,0.764,0.088c0.163,0.01,0.325,0.016,0.486,0.016c0.057,0,0.113-0.007,0.169-0.008
	c0.093-0.002,0.185-0.008,0.277-0.013c0.163-0.01,0.324-0.023,0.484-0.043c0.078-0.01,0.155-0.022,0.232-0.034
	c0.169-0.027,0.337-0.058,0.502-0.096c0.069-0.016,0.137-0.033,0.205-0.05c0.169-0.044,0.335-0.093,0.499-0.148
	c0.064-0.021,0.127-0.043,0.189-0.066c0.164-0.06,0.324-0.125,0.483-0.196c0.061-0.027,0.121-0.054,0.181-0.083
	c0.154-0.074,0.305-0.153,0.454-0.237c0.06-0.034,0.121-0.068,0.18-0.104c0.142-0.086,0.28-0.176,0.416-0.271
	c0.061-0.042,0.122-0.084,0.181-0.128c0.128-0.095,0.252-0.195,0.374-0.299c0.06-0.051,0.121-0.101,0.18-0.154
	c0.114-0.103,0.224-0.211,0.332-0.321c0.059-0.06,0.12-0.119,0.177-0.181c0.1-0.109,0.194-0.222,0.287-0.337
	c0.057-0.07,0.116-0.139,0.171-0.211c0.086-0.114,0.166-0.233,0.246-0.352c0.053-0.079,0.108-0.156,0.158-0.236
	c0.074-0.12,0.141-0.245,0.208-0.369c0.047-0.086,0.096-0.17,0.14-0.258c0.062-0.127,0.116-0.258,0.171-0.388
	c0.039-0.091,0.081-0.18,0.116-0.274c0.051-0.137,0.093-0.278,0.137-0.419c0.029-0.092,0.062-0.181,0.087-0.275
	c0.042-0.158,0.073-0.32,0.106-0.482c0.016-0.08,0.038-0.158,0.051-0.24c0.04-0.245,0.07-0.495,0.086-0.749
	c0.434-6.773,6.319-11.931,13.068-11.494c3.28,0.209,6.282,1.684,8.452,4.152c2.172,2.468,3.251,5.633,3.041,8.914
	C344.434,170.299,347.572,173.868,351.709,174.133z"/>
<path d="M419.772,277.47c-4.141-0.304-7.735,2.794-8.042,6.928c-0.308,4.134,2.794,7.735,6.928,8.042
	c0.838,0.062,1.668,0.093,2.495,0.093c17.254-0.001,31.896-13.362,33.197-30.842c0.66-8.874-2.176-17.473-7.984-24.215
	c-5.808-6.742-13.893-10.817-22.766-11.478c-4.136-0.303-7.735,2.795-8.042,6.928c-0.307,4.134,2.795,7.735,6.928,8.042
	c4.875,0.362,9.318,2.602,12.508,6.305c3.19,3.704,4.748,8.428,4.385,13.303C438.631,270.641,429.832,278.219,419.772,277.47z"/>
<g>
</g>
<g>
</g>
<g>
</g>
<g>
</g>
<g>
</g>
<g>
</g>
<g>
</g>
<g>
</g>
<g>
</g>
<g>
</g>
<g>
</g>
<g>
</g>
<g>
</g>
<g>
</g>
<g>
</g>
</svg>
